#N canvas 15 179 454 485 10;
#N canvas 764 579 574 343 osc_initialization 1;
#X obj -1503 -1957 udpreceive 9001;
#X obj -1200 -1926 unpackOSC;
#X obj -1062 -1926 unpackOSC;
#X obj -1503 -1987 inlet;
#X obj -1360 -1923 unpackOSC;
#X obj -1503 -1922 unpackOSC;
#N canvas 16 94 377 297 accelerometer 0;
#X floatatom -1491 -1385 5 0 0 0 - - -;
#X floatatom -1404 -1384 5 0 0 0 - - -;
#X floatatom -1317 -1384 5 0 0 0 - - -;
#X obj -1491 -1445 routeOSC /aOSC/acc/x /aOSC/acc/y /aOSC/acc/z;
#X text -1499 -1497 Accelerometer;
#X obj -1491 -1350 outlet;
#X obj -1404 -1350 outlet;
#X obj -1317 -1350 outlet;
#X obj -1491 -1474 inlet;
#X obj -1404 -1414 * -10;
#X obj -1317 -1414 * -10;
#X obj -1491 -1414 * -10;
#X connect 0 0 5 0;
#X connect 1 0 6 0;
#X connect 2 0 7 0;
#X connect 3 0 11 0;
#X connect 3 1 9 0;
#X connect 3 2 10 0;
#X connect 8 0 3 0;
#X connect 9 0 1 0;
#X connect 10 0 2 0;
#X connect 11 0 0 0;
#X restore -1062 -1893 pd accelerometer;
#N canvas 429 190 377 297 gyroscope 0;
#X obj -1491 -1614 inlet;
#X obj -1491 -1584 routeOSC /aOSC/gyro/x /aOSC/gyro/y /aOSC/gyro/z
;
#X obj -1491 -1554 i;
#X obj -1398 -1554 i;
#X obj -1305 -1554 i;
#X floatatom -1491 -1526 5 0 0 0 - - -;
#X floatatom -1398 -1525 5 0 0 0 - - -;
#X floatatom -1305 -1525 5 0 0 0 - - -;
#X text -1499 -1637 Gyroscope;
#X obj -1491 -1496 outlet;
#X obj -1398 -1496 outlet;
#X obj -1305 -1496 outlet;
#X connect 0 0 1 0;
#X connect 1 0 2 0;
#X connect 1 1 3 0;
#X connect 1 2 4 0;
#X connect 2 0 5 0;
#X connect 3 0 6 0;
#X connect 4 0 7 0;
#X connect 5 0 9 0;
#X connect 6 0 10 0;
#X connect 7 0 11 0;
#X restore -1200 -1893 pd gyroscope;
#N canvas 16 94 377 297 switches 0;
#X obj -1500 -1742 inlet;
#X obj -1500 -1656 outlet;
#X obj -1395 -1656 outlet;
#X obj -1290 -1656 outlet;
#X floatatom -1500 -1686 5 0 0 0 - - -;
#X floatatom -1395 -1686 5 0 0 0 - - -;
#X floatatom -1290 -1686 5 0 0 0 - - -;
#X text -1505 -1765 Switches;
#X obj -1500 -1714 routeOSC /aOSC/switch/1 /aOSC/switch/2 /aOSC/switch/3
;
#X connect 0 0 8 0;
#X connect 4 0 1 0;
#X connect 5 0 2 0;
#X connect 6 0 3 0;
#X connect 8 0 4 0;
#X connect 8 1 5 0;
#X connect 8 2 6 0;
#X restore -1360 -1890 pd switches;
#X floatatom -1503 -1856 5 0 0 0 - - -;
#X floatatom -1460 -1856 5 0 0 0 - - -;
#X floatatom -1417 -1856 5 0 0 0 - - -;
#X floatatom -1360 -1856 5 0 0 0 - - -;
#X floatatom -1317 -1856 5 0 0 0 - - -;
#X floatatom -1274 -1856 5 0 0 0 - - -;
#X floatatom -1200 -1856 5 0 0 0 - - -;
#X floatatom -1157 -1856 5 0 0 0 - - -;
#X floatatom -1114 -1856 5 0 0 0 - - -;
#X floatatom -1062 -1856 5 0 0 0 - - -;
#X floatatom -1016 -1856 5 0 0 0 - - -;
#X floatatom -969 -1856 5 0 0 0 - - -;
#X obj -1062 -1820 s acc/x;
#X obj -1062 -1796 s acc/y;
#X obj -1062 -1773 s acc/z;
#X obj -1200 -1820 s gyro/x;
#X obj -1200 -1796 s gyro/y;
#X obj -1199 -1773 s gyro/z;
#X text -1503 -1872 comment;
#N canvas 16 94 377 297 sliders 0;
#X obj -1500 -1840 inlet;
#X obj -1500 -1754 outlet;
#X obj -1395 -1754 outlet;
#X obj -1290 -1754 outlet;
#X text -1505 -1863 Sliders;
#X floatatom -1500 -1784 5 0 0 0 - - -;
#X floatatom -1395 -1784 5 0 0 0 - - -;
#X floatatom -1290 -1784 5 0 0 0 - - -;
#X obj -1500 -1812 routeOSC /aOSC/slider/a /aOSC/slider/b /aOSC/slider/c
;
#X connect 0 0 8 0;
#X connect 5 0 1 0;
#X connect 6 0 2 0;
#X connect 7 0 3 0;
#X connect 8 0 5 0;
#X connect 8 1 6 0;
#X connect 8 2 7 0;
#X restore -1503 -1889 pd sliders;
#X obj -1503 -1820 s slider/a;
#X obj -1503 -1796 s slider/b;
#X obj -1502 -1773 s slider/c;
#X obj -1360 -1820 s switch/1;
#X obj -1360 -1796 s switch/2;
#X obj -1359 -1773 s switch/3;
#X connect 0 0 1 0;
#X connect 0 0 2 0;
#X connect 0 0 5 0;
#X connect 0 0 4 0;
#X connect 1 0 7 0;
#X connect 2 0 6 0;
#X connect 3 0 0 0;
#X connect 4 0 8 0;
#X connect 5 0 28 0;
#X connect 6 0 18 0;
#X connect 6 1 19 0;
#X connect 6 2 20 0;
#X connect 7 0 15 0;
#X connect 7 1 16 0;
#X connect 7 2 17 0;
#X connect 8 0 12 0;
#X connect 8 1 13 0;
#X connect 8 2 14 0;
#X connect 9 0 29 0;
#X connect 10 0 30 0;
#X connect 11 0 31 0;
#X connect 12 0 32 0;
#X connect 13 0 33 0;
#X connect 14 0 34 0;
#X connect 15 0 24 0;
#X connect 16 0 25 0;
#X connect 17 0 26 0;
#X connect 18 0 21 0;
#X connect 19 0 22 0;
#X connect 20 0 23 0;
#X connect 28 0 9 0;
#X connect 28 1 10 0;
#X connect 28 2 11 0;
#X restore 27 50 pd osc_initialization;
#X obj 27 21 tgl 15 0 empty empty empty 17 7 0 10 -262144 -1 -1 0 1
;
#X obj 27 98 hradio 15 1 0 3 soundset empty empty 0 -8 0 10 -262144
-1 -1 0;
#N canvas 480 92 752 814 soundset1 1;
#X obj 10 235 line~;
#X obj 10 186 * 441;
#X floatatom 10 156 0 0 100 0 - - -;
#X obj 10 210 pack 0 100;
#X text 51 184 convert to SAMPLES (441 samples in 0.01 sec);
#X text 81 208 convert smoothly to audio signal;
#X obj 446 190 soundfiler;
#N canvas 0 22 450 300 (subpatch) 0;
#X array sample-table-01 44104 float 0;
#X coords 0 1.02 44103 -1.02 100 100 1 0 0;
#X restore 332 139 graph;
#X obj 10 263 tabread4~ sample-table-01;
#X obj 11 18 inlet;
#X obj 10 465 line~;
#X obj 10 416 * 441;
#X floatatom 10 386 0 0 100 0 - - -;
#X obj 10 440 pack 0 100;
#X text 51 414 convert to SAMPLES (441 samples in 0.01 sec);
#X text 81 438 convert smoothly to audio signal;
#X obj 446 420 soundfiler;
#N canvas 0 22 450 300 (subpatch) 0;
#X array sample-table-02 44104 float 0;
#X coords 0 1.02 44103 -1.02 100 100 1 0 0;
#X restore 332 369 graph;
#X obj 10 493 tabread4~ sample-table-02;
#X obj 10 695 line~;
#X obj 10 646 * 441;
#X floatatom 10 616 0 0 100 0 - - -;
#X obj 10 670 pack 0 100;
#X text 51 644 convert to SAMPLES (441 samples in 0.01 sec);
#X text 81 668 convert smoothly to audio signal;
#X obj 446 650 soundfiler;
#N canvas 0 22 450 300 (subpatch) 0;
#X array sample-table-03 44104 float 0;
#X coords 0 1.02 44103 -1.02 100 100 1 0 0;
#X restore 332 599 graph;
#X obj 10 723 tabread4~ sample-table-03;
#X msg 446 395 read soundset1/02.wav sample-table-02;
#X msg 446 165 read soundset1/01.wav sample-table-01;
#X msg 446 625 read soundset1/03.wav sample-table-03;
#X obj 446 600 bng 15 250 50 0 empty empty empty 17 7 0 10 -262144
-1 -1;
#X obj 446 369 bng 15 250 50 0 empty empty empty 17 7 0 10 -262144
-1 -1;
#X obj 446 139 bng 15 250 50 0 empty empty empty 17 7 0 10 -262144
-1 -1;
#X obj 147 35 bng 15 250 50 0 empty empty empty 17 7 0 10 -262144 -1
-1;
#X obj 147 86 readsf~;
#X obj 189 114 vsl 15 25 0 0.5 0 0 empty empty empty 0 -9 0 10 -262144
-1 -1 2400 1;
#X obj 149 146 dac~;
#X floatatom 190 146 5 0 0 0 - - -;
#X obj 148 113 *~;
#X obj 111 21 tgl 15 0 empty empty empty 17 7 0 10 -262144 -1 -1 1
1;
#X obj 212 111 r slider/a;
#X obj 46 290 tgl 15 0 empty empty empty 17 7 0 10 -262144 -1 -1 1
1;
#X floatatom 46 317 5 0 0 0 - - -;
#X obj 11 291 *~;
#X obj 46 520 tgl 15 0 empty empty empty 17 7 0 10 -262144 -1 -1 1
1;
#X floatatom 46 547 5 0 0 0 - - -;
#X obj 11 521 *~;
#X obj 46 750 tgl 15 0 empty empty empty 17 7 0 10 -262144 -1 -1 1
1;
#X floatatom 46 777 5 0 0 0 - - -;
#X obj 11 751 *~;
#X msg 147 61 open soundset1/base.wav \, 1;
#X obj 128 379 i;
#X obj 133 583 i;
#X obj 134 617 * 4;
#X obj 72 144 i;
#X obj 96 343 outlet~;
#X text 51 695 comment;
#X text 51 235 comment;
#X obj 10 355 r gyro/y;
#X obj 10 124 r gyro/x;
#X obj 10 586 r gyro/z;
#X connect 0 0 8 0;
#X connect 1 0 3 0;
#X connect 2 0 1 0;
#X connect 3 0 0 0;
#X connect 8 0 44 0;
#X connect 9 0 31 0;
#X connect 9 0 32 0;
#X connect 9 0 33 0;
#X connect 9 0 40 0;
#X connect 9 0 42 0;
#X connect 9 0 48 0;
#X connect 9 0 45 0;
#X connect 10 0 18 0;
#X connect 11 0 13 0;
#X connect 12 0 11 0;
#X connect 13 0 10 0;
#X connect 18 0 47 0;
#X connect 19 0 27 0;
#X connect 20 0 22 0;
#X connect 21 0 20 0;
#X connect 22 0 19 0;
#X connect 27 0 50 0;
#X connect 28 0 16 0;
#X connect 29 0 6 0;
#X connect 30 0 25 0;
#X connect 31 0 30 0;
#X connect 32 0 28 0;
#X connect 33 0 29 0;
#X connect 34 0 51 0;
#X connect 35 0 39 0;
#X connect 36 0 38 0;
#X connect 36 0 39 1;
#X connect 39 0 37 0;
#X connect 39 0 37 1;
#X connect 40 0 34 0;
#X connect 40 0 35 0;
#X connect 41 0 36 0;
#X connect 42 0 43 0;
#X connect 43 0 44 1;
#X connect 44 0 56 0;
#X connect 45 0 46 0;
#X connect 46 0 47 1;
#X connect 47 0 56 0;
#X connect 48 0 49 0;
#X connect 49 0 50 1;
#X connect 50 0 56 0;
#X connect 51 0 35 0;
#X connect 52 0 12 0;
#X connect 53 0 54 0;
#X connect 54 0 21 0;
#X connect 55 0 2 0;
#X connect 59 0 52 0;
#X connect 60 0 55 0;
#X connect 61 0 53 0;
#X restore 27 258 pd soundset1;
#X obj 27 164 sel 0 1 2;
#X floatatom 27 124 5 0 0 0 - - -;
#X text 25 77 Soundset Selector;
#X obj 27 232 tgl 15 0 empty empty empty 17 7 0 10 -262144 -1 -1 1
1;
#X obj 117 232 tgl 15 0 empty empty empty 17 7 0 10 -262144 -1 -1 0
1;
#N canvas 888 93 752 814 soundset2 1;
#X obj 10 235 line~;
#X obj 10 186 * 441;
#X floatatom 10 156 0 0 100 0 - - -;
#X obj 10 210 pack 0 100;
#X text 51 184 convert to SAMPLES (441 samples in 0.01 sec);
#X text 81 208 convert smoothly to audio signal;
#X obj 446 190 soundfiler;
#N canvas 0 22 450 300 (subpatch) 0;
#X array sample-table-04 44104 float 0;
#X coords 0 1.02 44103 -1.02 100 100 1 0 0;
#X restore 332 139 graph;
#X obj 11 18 inlet;
#X obj 10 465 line~;
#X obj 10 416 * 441;
#X floatatom 10 386 0 0 100 0 - - -;
#X obj 10 440 pack 0 100;
#X text 51 414 convert to SAMPLES (441 samples in 0.01 sec);
#X text 81 438 convert smoothly to audio signal;
#X obj 446 420 soundfiler;
#N canvas 0 22 450 300 (subpatch) 0;
#X array sample-table-05 44104 float 0;
#X coords 0 1.02 44103 -1.02 100 100 1 0 0;
#X restore 332 369 graph;
#X obj 10 695 line~;
#X obj 10 646 * 441;
#X floatatom 10 616 0 0 100 0 - - -;
#X obj 10 670 pack 0 100;
#X text 51 644 convert to SAMPLES (441 samples in 0.01 sec);
#X text 81 668 convert smoothly to audio signal;
#X obj 446 650 soundfiler;
#N canvas 0 22 450 300 (subpatch) 0;
#X array sample-table-06 44104 float 0;
#X coords 0 1.02 44103 -1.02 100 100 1 0 0;
#X restore 332 599 graph;
#X obj 10 355 r acc/y;
#X obj 10 586 r acc/z;
#X obj 446 600 bng 15 250 50 0 empty empty empty 17 7 0 10 -262144
-1 -1;
#X obj 446 369 bng 15 250 50 0 empty empty empty 17 7 0 10 -262144
-1 -1;
#X obj 446 139 bng 15 250 50 0 empty empty empty 17 7 0 10 -262144
-1 -1;
#X obj 147 35 bng 15 250 50 0 empty empty empty 17 7 0 10 -262144 -1
-1;
#X obj 147 86 readsf~;
#X obj 189 114 vsl 15 25 0 0.5 0 0 empty empty empty 0 -9 0 10 -262144
-1 -1 2400 1;
#X obj 149 146 dac~;
#X floatatom 190 146 5 0 0 0 - - -;
#X obj 148 113 *~;
#X obj 111 21 tgl 15 0 empty empty empty 17 7 0 10 -262144 -1 -1 0
1;
#X obj 212 111 r slider/a;
#X obj 46 290 tgl 15 0 empty empty empty 17 7 0 10 -262144 -1 -1 0
1;
#X floatatom 46 317 5 0 0 0 - - -;
#X obj 11 291 *~;
#X obj 46 520 tgl 15 0 empty empty empty 17 7 0 10 -262144 -1 -1 0
1;
#X floatatom 46 547 5 0 0 0 - - -;
#X obj 11 521 *~;
#X obj 46 750 tgl 15 0 empty empty empty 17 7 0 10 -262144 -1 -1 0
1;
#X floatatom 46 777 5 0 0 0 - - -;
#X obj 11 751 *~;
#X msg 147 61 open soundset2/base.wav \, 1;
#X msg 446 165 read soundset2/01.wav sample-table-04;
#X msg 446 395 read soundset2/02.wav sample-table-05;
#X msg 446 625 read soundset2/03.wav sample-table-06;
#X obj 11 723 tabread4~ sample-table-06;
#X obj 10 493 tabread4~ sample-table-05;
#X obj 10 263 tabread4~ sample-table-01;
#X obj 10 124 r acc/x;
#X obj 147 317 outlet~;
#X text 51 465 comment;
#X text 51 695 comment;
#X text 52 235 comment;
#X connect 0 0 53 0;
#X connect 1 0 3 0;
#X connect 2 0 1 0;
#X connect 3 0 0 0;
#X connect 8 0 27 0;
#X connect 8 0 28 0;
#X connect 8 0 29 0;
#X connect 8 0 36 0;
#X connect 8 0 38 0;
#X connect 8 0 41 0;
#X connect 8 0 44 0;
#X connect 9 0 52 0;
#X connect 10 0 12 0;
#X connect 11 0 10 0;
#X connect 12 0 9 0;
#X connect 17 0 51 0;
#X connect 18 0 20 0;
#X connect 19 0 18 0;
#X connect 20 0 17 0;
#X connect 25 0 11 0;
#X connect 26 0 19 0;
#X connect 27 0 50 0;
#X connect 28 0 49 0;
#X connect 29 0 48 0;
#X connect 30 0 47 0;
#X connect 31 0 35 0;
#X connect 32 0 34 0;
#X connect 32 0 35 1;
#X connect 35 0 33 0;
#X connect 35 0 33 1;
#X connect 36 0 30 0;
#X connect 36 0 31 0;
#X connect 37 0 32 0;
#X connect 38 0 39 0;
#X connect 39 0 40 1;
#X connect 40 0 55 0;
#X connect 41 0 42 0;
#X connect 42 0 43 1;
#X connect 43 0 55 0;
#X connect 44 0 45 0;
#X connect 45 0 46 1;
#X connect 46 0 55 0;
#X connect 47 0 31 0;
#X connect 48 0 6 0;
#X connect 49 0 15 0;
#X connect 50 0 23 0;
#X connect 51 0 46 0;
#X connect 52 0 43 0;
#X connect 53 0 40 0;
#X connect 54 0 2 0;
#X restore 117 258 pd soundset2;
#X obj 27 197 r switch/1;
#X obj 117 197 r switch/2;
#X obj 29 409 dac~;
#X obj 28 324 freeverb~;
#X msg 117 352 wet \$1;
#X obj 120 324 hsl 36 24 0 1 0 0 empty empty empty -2 -8 0 10 -262144
-1 -1 0 1;
#X obj 193 324 hsl 36 24 0 1 0 0 empty empty empty -2 -8 0 10 -262144
-1 -1 3500 1;
#X msg 190 352 dry \$1;
#X obj 117 299 r slider/b;
#X obj 190 299 r slider/c;
#X obj 209 232 tgl 15 0 empty empty empty 17 7 0 10 -262144 -1 -1 0
1;
#X obj 209 197 r switch/3;
#N canvas 850 98 752 814 soundset3 1;
#X obj 10 235 line~;
#X obj 10 186 * 441;
#X floatatom 10 156 0 0 100 0 - - -;
#X obj 10 210 pack 0 100;
#X text 51 184 convert to SAMPLES (441 samples in 0.01 sec);
#X text 81 208 convert smoothly to audio signal;
#X obj 446 190 soundfiler;
#N canvas 0 22 450 300 (subpatch) 0;
#X array sample-table-07 44104 float 0;
#X coords 0 1.02 44103 -1.02 100 100 1 0 0;
#X restore 332 139 graph;
#X obj 11 18 inlet;
#X obj 10 465 line~;
#X obj 10 416 * 441;
#X floatatom 10 386 0 0 100 0 - - -;
#X obj 10 440 pack 0 100;
#X text 51 414 convert to SAMPLES (441 samples in 0.01 sec);
#X text 81 438 convert smoothly to audio signal;
#X obj 446 420 soundfiler;
#N canvas 0 22 450 300 (subpatch) 0;
#X array sample-table-08 44104 float 0;
#X coords 0 1.02 44103 -1.02 100 100 1 0 0;
#X restore 332 369 graph;
#X obj 10 695 line~;
#X obj 10 646 * 441;
#X floatatom 10 616 0 0 100 0 - - -;
#X obj 10 670 pack 0 100;
#X text 51 644 convert to SAMPLES (441 samples in 0.01 sec);
#X text 81 668 convert smoothly to audio signal;
#X obj 446 650 soundfiler;
#N canvas 0 22 450 300 (subpatch) 0;
#X array sample-table-09 44104 float 0;
#X coords 0 1.02 44103 -1.02 100 100 1 0 0;
#X restore 332 599 graph;
#X obj 10 355 r acc/y;
#X obj 10 586 r acc/z;
#X obj 446 600 bng 15 250 50 0 empty empty empty 17 7 0 10 -262144
-1 -1;
#X obj 446 369 bng 15 250 50 0 empty empty empty 17 7 0 10 -262144
-1 -1;
#X obj 446 139 bng 15 250 50 0 empty empty empty 17 7 0 10 -262144
-1 -1;
#X obj 147 35 bng 15 250 50 0 empty empty empty 17 7 0 10 -262144 -1
-1;
#X obj 147 86 readsf~;
#X obj 189 114 vsl 15 25 0 0.5 0 0 empty empty empty 0 -9 0 10 -262144
-1 -1 2400 1;
#X obj 149 146 dac~;
#X floatatom 190 146 5 0 0 0 - - -;
#X obj 148 113 *~;
#X obj 111 21 tgl 15 0 empty empty empty 17 7 0 10 -262144 -1 -1 0
1;
#X obj 212 111 r slider/a;
#X obj 46 290 tgl 15 0 empty empty empty 17 7 0 10 -262144 -1 -1 0
1;
#X floatatom 46 317 5 0 0 0 - - -;
#X obj 11 291 *~;
#X obj 46 520 tgl 15 0 empty empty empty 17 7 0 10 -262144 -1 -1 0
1;
#X floatatom 46 547 5 0 0 0 - - -;
#X obj 11 521 *~;
#X obj 46 750 tgl 15 0 empty empty empty 17 7 0 10 -262144 -1 -1 0
1;
#X floatatom 46 777 5 0 0 0 - - -;
#X obj 11 751 *~;
#X obj 10 124 r acc/x;
#X obj 147 317 outlet~;
#X text 51 465 comment;
#X text 51 695 comment;
#X text 52 235 comment;
#X msg 147 61 open soundset3/base.wav \, 1;
#X obj 11 723 tabread4~ sample-table-09;
#X obj 10 493 tabread4~ sample-table-08;
#X obj 10 263 tabread4~ sample-table-07;
#X msg 446 165 read soundset3/01.wav sample-table-07;
#X msg 446 394 read soundset3/02.wav sample-table-08;
#X msg 446 625 read soundset3/03.wav sample-table-09;
#X connect 0 0 55 0;
#X connect 1 0 3 0;
#X connect 2 0 1 0;
#X connect 3 0 0 0;
#X connect 8 0 27 0;
#X connect 8 0 28 0;
#X connect 8 0 29 0;
#X connect 8 0 36 0;
#X connect 8 0 38 0;
#X connect 8 0 41 0;
#X connect 8 0 44 0;
#X connect 9 0 54 0;
#X connect 10 0 12 0;
#X connect 11 0 10 0;
#X connect 12 0 9 0;
#X connect 17 0 53 0;
#X connect 18 0 20 0;
#X connect 19 0 18 0;
#X connect 20 0 17 0;
#X connect 25 0 11 0;
#X connect 26 0 19 0;
#X connect 27 0 58 0;
#X connect 28 0 57 0;
#X connect 29 0 56 0;
#X connect 30 0 52 0;
#X connect 31 0 35 0;
#X connect 32 0 34 0;
#X connect 32 0 35 1;
#X connect 35 0 33 0;
#X connect 35 0 33 1;
#X connect 36 0 30 0;
#X connect 36 0 31 0;
#X connect 37 0 32 0;
#X connect 38 0 39 0;
#X connect 39 0 40 1;
#X connect 40 0 48 0;
#X connect 41 0 42 0;
#X connect 42 0 43 1;
#X connect 43 0 48 0;
#X connect 44 0 45 0;
#X connect 45 0 46 1;
#X connect 46 0 48 0;
#X connect 47 0 2 0;
#X connect 52 0 31 0;
#X connect 53 0 46 0;
#X connect 54 0 43 0;
#X connect 55 0 40 0;
#X connect 56 0 6 0;
#X connect 57 0 15 0;
#X connect 58 0 23 0;
#X restore 209 259 pd soundset3;
#X connect 1 0 0 0;
#X connect 2 0 5 0;
#X connect 3 0 13 0;
#X connect 5 0 4 0;
#X connect 7 0 3 0;
#X connect 8 0 9 0;
#X connect 9 0 13 0;
#X connect 10 0 7 0;
#X connect 11 0 8 0;
#X connect 13 0 12 0;
#X connect 13 1 12 1;
#X connect 14 0 13 0;
#X connect 15 0 14 0;
#X connect 16 0 17 0;
#X connect 17 0 13 0;
#X connect 18 0 15 0;
#X connect 19 0 16 0;
#X connect 20 0 22 0;
#X connect 21 0 20 0;
#X connect 22 0 13 0;
